<svg xmlns="http://www.w3.org/2000/svg" viewBox="0 0 1200 600" width="1200" height="600">
  <defs>
    <linearGradient id="bg" x1="0%" y1="0%" x2="100%" y2="100%">
      <stop offset="0%" style="stop-color:#1e293b"/>
      <stop offset="100%" style="stop-color:#0f172a"/>
    </linearGradient>
    <filter id="blur1"><feGaussianBlur stdDeviation="40"/></filter>
    <filter id="blur2"><feGaussianBlur stdDeviation="20"/></filter>
  </defs>
  <rect width="1200" height="600" fill="url(#bg)"/>
  <circle cx="363" cy="379" r="271" fill="#3b82f6" opacity="0.16" filter="url(#blur1)"/>
  <circle cx="388" cy="162" r="185" fill="#6366f1" opacity="0.16" filter="url(#blur1)"/>
  <circle cx="268" cy="586" r="144" fill="#8b5cf6" opacity="0.17" filter="url(#blur1)"/>
  <circle cx="948" cy="457" r="116" fill="#3b82f6" opacity="0.18" filter="url(#blur2)"/>
  <circle cx="847" cy="343" r="67" fill="#6366f1" opacity="0.19" filter="url(#blur2)"/>
  <circle cx="1191" cy="269" r="110" fill="#8b5cf6" opacity="0.17" filter="url(#blur2)"/>
  <circle cx="348" cy="589" r="65" fill="#3b82f6" opacity="0.18" filter="url(#blur2)"/>
  <circle cx="124" cy="131" r="81" fill="#6366f1" opacity="0.14" filter="url(#blur2)"/>
  <g opacity="0.03" stroke="#fff" stroke-width="1">
    <line x1="0" y1="0" x2="0" y2="600"/>
    <line x1="60" y1="0" x2="60" y2="600"/>
    <line x1="120" y1="0" x2="120" y2="600"/>
    <line x1="180" y1="0" x2="180" y2="600"/>
    <line x1="240" y1="0" x2="240" y2="600"/>
    <line x1="300" y1="0" x2="300" y2="600"/>
    <line x1="360" y1="0" x2="360" y2="600"/>
    <line x1="420" y1="0" x2="420" y2="600"/>
    <line x1="480" y1="0" x2="480" y2="600"/>
    <line x1="540" y1="0" x2="540" y2="600"/>
    <line x1="600" y1="0" x2="600" y2="600"/>
    <line x1="660" y1="0" x2="660" y2="600"/>
    <line x1="720" y1="0" x2="720" y2="600"/>
    <line x1="780" y1="0" x2="780" y2="600"/>
    <line x1="840" y1="0" x2="840" y2="600"/>
    <line x1="900" y1="0" x2="900" y2="600"/>
    <line x1="960" y1="0" x2="960" y2="600"/>
    <line x1="1020" y1="0" x2="1020" y2="600"/>
    <line x1="1080" y1="0" x2="1080" y2="600"/>
    <line x1="1140" y1="0" x2="1140" y2="600"/>
    <line x1="0" y1="0" x2="1200" y2="0"/>
    <line x1="0" y1="60" x2="1200" y2="60"/>
    <line x1="0" y1="120" x2="1200" y2="120"/>
    <line x1="0" y1="180" x2="1200" y2="180"/>
    <line x1="0" y1="240" x2="1200" y2="240"/>
    <line x1="0" y1="300" x2="1200" y2="300"/>
    <line x1="0" y1="360" x2="1200" y2="360"/>
    <line x1="0" y1="420" x2="1200" y2="420"/>
    <line x1="0" y1="480" x2="1200" y2="480"/>
    <line x1="0" y1="540" x2="1200" y2="540"/>
  </g>
  <circle cx="253" cy="315" r="4.6" fill="#3b82f6" opacity="0.36"/>
  <circle cx="220" cy="338" r="2.1" fill="#6366f1" opacity="0.66"/>
  <circle cx="32" cy="179" r="3.2" fill="#8b5cf6" opacity="0.57"/>
  <circle cx="244" cy="434" r="5.2" fill="#3b82f6" opacity="0.42"/>
  <circle cx="158" cy="107" r="2.7" fill="#6366f1" opacity="0.55"/>
  <circle cx="966" cy="86" r="3.8" fill="#8b5cf6" opacity="0.45"/>
  <circle cx="949" cy="37" r="3.0" fill="#3b82f6" opacity="0.55"/>
  <circle cx="918" cy="498" r="3.2" fill="#6366f1" opacity="0.52"/>
  <circle cx="655" cy="156" r="2.1" fill="#8b5cf6" opacity="0.52"/>
  <circle cx="1180" cy="137" r="5.2" fill="#3b82f6" opacity="0.49"/>
  <circle cx="54" cy="96" r="5.8" fill="#6366f1" opacity="0.47"/>
  <circle cx="456" cy="275" r="5.2" fill="#8b5cf6" opacity="0.58"/>
</svg>