<svg xmlns="http://www.w3.org/2000/svg" viewBox="0 0 800 500" width="800" height="500">
  <defs>
    <linearGradient id="bg" x1="0%" y1="0%" x2="100%" y2="100%">
      <stop offset="0%" style="stop-color:#1e293b"/>
      <stop offset="100%" style="stop-color:#0f172a"/>
    </linearGradient>
    <filter id="blur1"><feGaussianBlur stdDeviation="40"/></filter>
    <filter id="blur2"><feGaussianBlur stdDeviation="20"/></filter>
  </defs>
  <rect width="800" height="500" fill="url(#bg)"/>
  <circle cx="411" cy="188" r="151" fill="#3b82f6" opacity="0.25" filter="url(#blur1)"/>
  <circle cx="182" cy="420" r="259" fill="#6366f1" opacity="0.29" filter="url(#blur1)"/>
  <circle cx="593" cy="478" r="275" fill="#8b5cf6" opacity="0.26" filter="url(#blur1)"/>
  <circle cx="171" cy="14" r="74" fill="#3b82f6" opacity="0.13" filter="url(#blur2)"/>
  <circle cx="116" cy="282" r="105" fill="#6366f1" opacity="0.16" filter="url(#blur2)"/>
  <circle cx="768" cy="408" r="44" fill="#8b5cf6" opacity="0.19" filter="url(#blur2)"/>
  <circle cx="19" cy="362" r="80" fill="#3b82f6" opacity="0.10" filter="url(#blur2)"/>
  <circle cx="203" cy="406" r="88" fill="#6366f1" opacity="0.12" filter="url(#blur2)"/>
  <g opacity="0.03" stroke="#fff" stroke-width="1">
    <line x1="0" y1="0" x2="0" y2="500"/>
    <line x1="60" y1="0" x2="60" y2="500"/>
    <line x1="120" y1="0" x2="120" y2="500"/>
    <line x1="180" y1="0" x2="180" y2="500"/>
    <line x1="240" y1="0" x2="240" y2="500"/>
    <line x1="300" y1="0" x2="300" y2="500"/>
    <line x1="360" y1="0" x2="360" y2="500"/>
    <line x1="420" y1="0" x2="420" y2="500"/>
    <line x1="480" y1="0" x2="480" y2="500"/>
    <line x1="540" y1="0" x2="540" y2="500"/>
    <line x1="600" y1="0" x2="600" y2="500"/>
    <line x1="660" y1="0" x2="660" y2="500"/>
    <line x1="720" y1="0" x2="720" y2="500"/>
    <line x1="780" y1="0" x2="780" y2="500"/>
    <line x1="0" y1="0" x2="800" y2="0"/>
    <line x1="0" y1="60" x2="800" y2="60"/>
    <line x1="0" y1="120" x2="800" y2="120"/>
    <line x1="0" y1="180" x2="800" y2="180"/>
    <line x1="0" y1="240" x2="800" y2="240"/>
    <line x1="0" y1="300" x2="800" y2="300"/>
    <line x1="0" y1="360" x2="800" y2="360"/>
    <line x1="0" y1="420" x2="800" y2="420"/>
    <line x1="0" y1="480" x2="800" y2="480"/>
  </g>
  <circle cx="504" cy="249" r="3.3" fill="#3b82f6" opacity="0.39"/>
  <circle cx="548" cy="220" r="3.6" fill="#6366f1" opacity="0.58"/>
  <circle cx="246" cy="108" r="2.5" fill="#8b5cf6" opacity="0.30"/>
  <circle cx="541" cy="112" r="4.6" fill="#3b82f6" opacity="0.56"/>
  <circle cx="670" cy="13" r="5.8" fill="#6366f1" opacity="0.37"/>
  <circle cx="216" cy="37" r="3.9" fill="#8b5cf6" opacity="0.57"/>
  <circle cx="510" cy="76" r="4.7" fill="#3b82f6" opacity="0.59"/>
  <circle cx="28" cy="451" r="4.6" fill="#6366f1" opacity="0.46"/>
  <circle cx="415" cy="147" r="3.3" fill="#8b5cf6" opacity="0.59"/>
  <circle cx="734" cy="25" r="2.2" fill="#3b82f6" opacity="0.66"/>
  <circle cx="271" cy="444" r="5.1" fill="#6366f1" opacity="0.62"/>
  <circle cx="87" cy="454" r="2.1" fill="#8b5cf6" opacity="0.46"/>
</svg>