<svg xmlns="http://www.w3.org/2000/svg" viewBox="0 0 800 500" width="800" height="500">
  <defs>
    <linearGradient id="bg" x1="0%" y1="0%" x2="100%" y2="100%">
      <stop offset="0%" style="stop-color:#0f172a"/>
      <stop offset="100%" style="stop-color:#1e1b4b"/>
    </linearGradient>
    <filter id="blur1"><feGaussianBlur stdDeviation="40"/></filter>
    <filter id="blur2"><feGaussianBlur stdDeviation="20"/></filter>
  </defs>
  <rect width="800" height="500" fill="url(#bg)"/>
  <circle cx="501" cy="60" r="252" fill="#6366f1" opacity="0.23" filter="url(#blur1)"/>
  <circle cx="572" cy="133" r="188" fill="#06b6d4" opacity="0.29" filter="url(#blur1)"/>
  <circle cx="653" cy="224" r="122" fill="#8b5cf6" opacity="0.20" filter="url(#blur1)"/>
  <circle cx="744" cy="86" r="58" fill="#6366f1" opacity="0.09" filter="url(#blur2)"/>
  <circle cx="307" cy="193" r="65" fill="#06b6d4" opacity="0.19" filter="url(#blur2)"/>
  <circle cx="134" cy="186" r="114" fill="#8b5cf6" opacity="0.16" filter="url(#blur2)"/>
  <circle cx="88" cy="307" r="84" fill="#6366f1" opacity="0.14" filter="url(#blur2)"/>
  <circle cx="335" cy="66" r="45" fill="#06b6d4" opacity="0.19" filter="url(#blur2)"/>
  <g opacity="0.03" stroke="#fff" stroke-width="1">
    <line x1="0" y1="0" x2="0" y2="500"/>
    <line x1="60" y1="0" x2="60" y2="500"/>
    <line x1="120" y1="0" x2="120" y2="500"/>
    <line x1="180" y1="0" x2="180" y2="500"/>
    <line x1="240" y1="0" x2="240" y2="500"/>
    <line x1="300" y1="0" x2="300" y2="500"/>
    <line x1="360" y1="0" x2="360" y2="500"/>
    <line x1="420" y1="0" x2="420" y2="500"/>
    <line x1="480" y1="0" x2="480" y2="500"/>
    <line x1="540" y1="0" x2="540" y2="500"/>
    <line x1="600" y1="0" x2="600" y2="500"/>
    <line x1="660" y1="0" x2="660" y2="500"/>
    <line x1="720" y1="0" x2="720" y2="500"/>
    <line x1="780" y1="0" x2="780" y2="500"/>
    <line x1="0" y1="0" x2="800" y2="0"/>
    <line x1="0" y1="60" x2="800" y2="60"/>
    <line x1="0" y1="120" x2="800" y2="120"/>
    <line x1="0" y1="180" x2="800" y2="180"/>
    <line x1="0" y1="240" x2="800" y2="240"/>
    <line x1="0" y1="300" x2="800" y2="300"/>
    <line x1="0" y1="360" x2="800" y2="360"/>
    <line x1="0" y1="420" x2="800" y2="420"/>
    <line x1="0" y1="480" x2="800" y2="480"/>
  </g>
  <circle cx="723" cy="458" r="3.9" fill="#6366f1" opacity="0.47"/>
  <circle cx="301" cy="469" r="4.3" fill="#06b6d4" opacity="0.63"/>
  <circle cx="287" cy="41" r="2.1" fill="#8b5cf6" opacity="0.58"/>
  <circle cx="230" cy="76" r="2.5" fill="#6366f1" opacity="0.39"/>
  <circle cx="395" cy="492" r="2.6" fill="#06b6d4" opacity="0.50"/>
  <circle cx="6" cy="376" r="5.4" fill="#8b5cf6" opacity="0.44"/>
  <circle cx="276" cy="54" r="2.4" fill="#6366f1" opacity="0.67"/>
  <circle cx="701" cy="399" r="3.1" fill="#06b6d4" opacity="0.34"/>
  <circle cx="746" cy="152" r="2.3" fill="#8b5cf6" opacity="0.38"/>
  <circle cx="763" cy="53" r="2.0" fill="#6366f1" opacity="0.57"/>
  <circle cx="494" cy="41" r="2.5" fill="#06b6d4" opacity="0.63"/>
  <circle cx="662" cy="420" r="3.4" fill="#8b5cf6" opacity="0.33"/>
</svg>