<svg xmlns="http://www.w3.org/2000/svg" viewBox="0 0 800 500" width="800" height="500">
  <defs>
    <linearGradient id="bg" x1="0%" y1="0%" x2="100%" y2="100%">
      <stop offset="0%" style="stop-color:#0c4a6e"/>
      <stop offset="100%" style="stop-color:#164e63"/>
    </linearGradient>
    <filter id="blur1"><feGaussianBlur stdDeviation="40"/></filter>
    <filter id="blur2"><feGaussianBlur stdDeviation="20"/></filter>
  </defs>
  <rect width="800" height="500" fill="url(#bg)"/>
  <circle cx="17" cy="398" r="205" fill="#22d3ee" opacity="0.22" filter="url(#blur1)"/>
  <circle cx="417" cy="129" r="257" fill="#38bdf8" opacity="0.28" filter="url(#blur1)"/>
  <circle cx="614" cy="15" r="212" fill="#a78bfa" opacity="0.29" filter="url(#blur1)"/>
  <circle cx="4" cy="317" r="99" fill="#22d3ee" opacity="0.10" filter="url(#blur2)"/>
  <circle cx="680" cy="480" r="94" fill="#38bdf8" opacity="0.16" filter="url(#blur2)"/>
  <circle cx="498" cy="347" r="75" fill="#a78bfa" opacity="0.14" filter="url(#blur2)"/>
  <circle cx="298" cy="365" r="45" fill="#22d3ee" opacity="0.08" filter="url(#blur2)"/>
  <circle cx="689" cy="297" r="55" fill="#38bdf8" opacity="0.19" filter="url(#blur2)"/>
  <g opacity="0.03" stroke="#fff" stroke-width="1">
    <line x1="0" y1="0" x2="0" y2="500"/>
    <line x1="60" y1="0" x2="60" y2="500"/>
    <line x1="120" y1="0" x2="120" y2="500"/>
    <line x1="180" y1="0" x2="180" y2="500"/>
    <line x1="240" y1="0" x2="240" y2="500"/>
    <line x1="300" y1="0" x2="300" y2="500"/>
    <line x1="360" y1="0" x2="360" y2="500"/>
    <line x1="420" y1="0" x2="420" y2="500"/>
    <line x1="480" y1="0" x2="480" y2="500"/>
    <line x1="540" y1="0" x2="540" y2="500"/>
    <line x1="600" y1="0" x2="600" y2="500"/>
    <line x1="660" y1="0" x2="660" y2="500"/>
    <line x1="720" y1="0" x2="720" y2="500"/>
    <line x1="780" y1="0" x2="780" y2="500"/>
    <line x1="0" y1="0" x2="800" y2="0"/>
    <line x1="0" y1="60" x2="800" y2="60"/>
    <line x1="0" y1="120" x2="800" y2="120"/>
    <line x1="0" y1="180" x2="800" y2="180"/>
    <line x1="0" y1="240" x2="800" y2="240"/>
    <line x1="0" y1="300" x2="800" y2="300"/>
    <line x1="0" y1="360" x2="800" y2="360"/>
    <line x1="0" y1="420" x2="800" y2="420"/>
    <line x1="0" y1="480" x2="800" y2="480"/>
  </g>
  <circle cx="140" cy="260" r="3.0" fill="#22d3ee" opacity="0.41"/>
  <circle cx="198" cy="75" r="5.2" fill="#38bdf8" opacity="0.58"/>
  <circle cx="793" cy="205" r="5.7" fill="#a78bfa" opacity="0.34"/>
  <circle cx="487" cy="66" r="2.7" fill="#22d3ee" opacity="0.41"/>
  <circle cx="598" cy="357" r="3.3" fill="#38bdf8" opacity="0.67"/>
  <circle cx="194" cy="98" r="2.2" fill="#a78bfa" opacity="0.64"/>
  <circle cx="28" cy="358" r="3.4" fill="#22d3ee" opacity="0.33"/>
  <circle cx="22" cy="373" r="2.7" fill="#38bdf8" opacity="0.69"/>
  <circle cx="602" cy="130" r="2.2" fill="#a78bfa" opacity="0.45"/>
  <circle cx="668" cy="170" r="5.7" fill="#22d3ee" opacity="0.59"/>
  <circle cx="13" cy="32" r="3.9" fill="#38bdf8" opacity="0.39"/>
  <circle cx="5" cy="89" r="5.9" fill="#a78bfa" opacity="0.63"/>
</svg>