<svg xmlns="http://www.w3.org/2000/svg" viewBox="0 0 400 400" width="400" height="400">
  <defs>
    <linearGradient id="bg" x1="0%" y1="0%" x2="100%" y2="100%">
      <stop offset="0%" style="stop-color:#1c1917"/>
      <stop offset="100%" style="stop-color:#292524"/>
    </linearGradient>
    <filter id="blur1"><feGaussianBlur stdDeviation="40"/></filter>
    <filter id="blur2"><feGaussianBlur stdDeviation="20"/></filter>
  </defs>
  <rect width="400" height="400" fill="url(#bg)"/>
  <circle cx="87" cy="74" r="291" fill="#f59e0b" opacity="0.20" filter="url(#blur1)"/>
  <circle cx="234" cy="193" r="240" fill="#ef4444" opacity="0.25" filter="url(#blur1)"/>
  <circle cx="0" cy="6" r="247" fill="#ec4899" opacity="0.20" filter="url(#blur1)"/>
  <circle cx="355" cy="47" r="44" fill="#f59e0b" opacity="0.16" filter="url(#blur2)"/>
  <circle cx="149" cy="100" r="113" fill="#ef4444" opacity="0.09" filter="url(#blur2)"/>
  <circle cx="382" cy="149" r="111" fill="#ec4899" opacity="0.18" filter="url(#blur2)"/>
  <circle cx="209" cy="168" r="103" fill="#f59e0b" opacity="0.09" filter="url(#blur2)"/>
  <circle cx="109" cy="256" r="73" fill="#ef4444" opacity="0.19" filter="url(#blur2)"/>
  <g opacity="0.03" stroke="#fff" stroke-width="1">
    <line x1="0" y1="0" x2="0" y2="400"/>
    <line x1="60" y1="0" x2="60" y2="400"/>
    <line x1="120" y1="0" x2="120" y2="400"/>
    <line x1="180" y1="0" x2="180" y2="400"/>
    <line x1="240" y1="0" x2="240" y2="400"/>
    <line x1="300" y1="0" x2="300" y2="400"/>
    <line x1="360" y1="0" x2="360" y2="400"/>
    <line x1="0" y1="0" x2="400" y2="0"/>
    <line x1="0" y1="60" x2="400" y2="60"/>
    <line x1="0" y1="120" x2="400" y2="120"/>
    <line x1="0" y1="180" x2="400" y2="180"/>
    <line x1="0" y1="240" x2="400" y2="240"/>
    <line x1="0" y1="300" x2="400" y2="300"/>
    <line x1="0" y1="360" x2="400" y2="360"/>
  </g>
  <circle cx="380" cy="75" r="4.2" fill="#f59e0b" opacity="0.57"/>
  <circle cx="306" cy="202" r="3.1" fill="#ef4444" opacity="0.56"/>
  <circle cx="340" cy="134" r="4.1" fill="#ec4899" opacity="0.68"/>
  <circle cx="42" cy="284" r="2.3" fill="#f59e0b" opacity="0.53"/>
  <circle cx="71" cy="361" r="4.5" fill="#ef4444" opacity="0.50"/>
  <circle cx="85" cy="237" r="3.8" fill="#ec4899" opacity="0.35"/>
  <circle cx="124" cy="381" r="3.4" fill="#f59e0b" opacity="0.51"/>
  <circle cx="49" cy="138" r="5.9" fill="#ef4444" opacity="0.43"/>
  <circle cx="8" cy="329" r="3.4" fill="#ec4899" opacity="0.51"/>
  <circle cx="259" cy="305" r="5.8" fill="#f59e0b" opacity="0.64"/>
  <circle cx="201" cy="358" r="5.5" fill="#ef4444" opacity="0.51"/>
  <circle cx="290" cy="396" r="2.5" fill="#ec4899" opacity="0.41"/>
</svg>