<svg xmlns="http://www.w3.org/2000/svg" viewBox="0 0 400 400" width="400" height="400">
  <defs>
    <linearGradient id="bg" x1="0%" y1="0%" x2="100%" y2="100%">
      <stop offset="0%" style="stop-color:#0c4a6e"/>
      <stop offset="100%" style="stop-color:#164e63"/>
    </linearGradient>
    <filter id="blur1"><feGaussianBlur stdDeviation="40"/></filter>
    <filter id="blur2"><feGaussianBlur stdDeviation="20"/></filter>
  </defs>
  <rect width="400" height="400" fill="url(#bg)"/>
  <circle cx="70" cy="21" r="288" fill="#22d3ee" opacity="0.22" filter="url(#blur1)"/>
  <circle cx="29" cy="65" r="167" fill="#38bdf8" opacity="0.18" filter="url(#blur1)"/>
  <circle cx="20" cy="137" r="263" fill="#a78bfa" opacity="0.24" filter="url(#blur1)"/>
  <circle cx="52" cy="335" r="74" fill="#22d3ee" opacity="0.16" filter="url(#blur2)"/>
  <circle cx="274" cy="245" r="69" fill="#38bdf8" opacity="0.18" filter="url(#blur2)"/>
  <circle cx="46" cy="325" r="53" fill="#a78bfa" opacity="0.14" filter="url(#blur2)"/>
  <circle cx="215" cy="281" r="85" fill="#22d3ee" opacity="0.12" filter="url(#blur2)"/>
  <circle cx="104" cy="345" r="119" fill="#38bdf8" opacity="0.08" filter="url(#blur2)"/>
  <g opacity="0.03" stroke="#fff" stroke-width="1">
    <line x1="0" y1="0" x2="0" y2="400"/>
    <line x1="60" y1="0" x2="60" y2="400"/>
    <line x1="120" y1="0" x2="120" y2="400"/>
    <line x1="180" y1="0" x2="180" y2="400"/>
    <line x1="240" y1="0" x2="240" y2="400"/>
    <line x1="300" y1="0" x2="300" y2="400"/>
    <line x1="360" y1="0" x2="360" y2="400"/>
    <line x1="0" y1="0" x2="400" y2="0"/>
    <line x1="0" y1="60" x2="400" y2="60"/>
    <line x1="0" y1="120" x2="400" y2="120"/>
    <line x1="0" y1="180" x2="400" y2="180"/>
    <line x1="0" y1="240" x2="400" y2="240"/>
    <line x1="0" y1="300" x2="400" y2="300"/>
    <line x1="0" y1="360" x2="400" y2="360"/>
  </g>
  <circle cx="372" cy="45" r="2.8" fill="#22d3ee" opacity="0.61"/>
  <circle cx="293" cy="9" r="3.8" fill="#38bdf8" opacity="0.35"/>
  <circle cx="98" cy="50" r="5.7" fill="#a78bfa" opacity="0.54"/>
  <circle cx="213" cy="170" r="5.3" fill="#22d3ee" opacity="0.59"/>
  <circle cx="117" cy="83" r="3.1" fill="#38bdf8" opacity="0.54"/>
  <circle cx="127" cy="89" r="4.8" fill="#a78bfa" opacity="0.59"/>
  <circle cx="116" cy="1" r="2.7" fill="#22d3ee" opacity="0.52"/>
  <circle cx="146" cy="315" r="2.1" fill="#38bdf8" opacity="0.66"/>
  <circle cx="111" cy="383" r="2.1" fill="#a78bfa" opacity="0.52"/>
  <circle cx="48" cy="247" r="2.5" fill="#22d3ee" opacity="0.38"/>
  <circle cx="5" cy="100" r="5.7" fill="#38bdf8" opacity="0.40"/>
  <circle cx="226" cy="227" r="3.9" fill="#a78bfa" opacity="0.51"/>
</svg>